<svg xmlns="http://www.w3.org/2000/svg" xmlns:xlink="http://www.w3.org/1999/xlink" viewBox="0 0 29.11 32"><defs><style>.a{fill:#706f73;}.b{fill:url(#a);}.c{fill:#fff;}</style><linearGradient id="a" x1="2.24" y1="29.82" x2="23.98" y2="3.37" gradientUnits="userSpaceOnUse"><stop offset="0.35" stop-color="#0094d2"/><stop offset="0.44" stop-color="#0a98d3"/><stop offset="0.59" stop-color="#25a3d5"/><stop offset="0.79" stop-color="#52b5d9"/><stop offset="1" stop-color="#87cade"/></linearGradient></defs><title>xenon-logo</title><path class="a" d="M16,32A14.56,14.56,0,1,1,30.56,17.44,14.57,14.57,0,0,1,16,32ZM16,5.57A11.87,11.87,0,1,0,27.87,17.44,11.89,11.89,0,0,0,16,5.57Z" transform="translate(-1.44)"/><path class="b" d="M26,12a3.45,3.45,0,1,0-2.83-1.48l-3.61,3.15a5,5,0,0,0-5.73-.9L8.61,5.93A3.46,3.46,0,1,0,8,6.4l5.15,6.81a5,5,0,0,0-2.07,3.67H8.77a2.34,2.34,0,1,0,0,.76h2.29a5,5,0,0,0,1,2.64l-1.42,1.25a1.26,1.26,0,1,0,.46.52l1.42-1.25a5,5,0,0,0,6.63.33l1.64,2.24a3.46,3.46,0,1,0,.61-0.46l-1.69-2.31a5,5,0,0,0,1.28-3h2.22a2.34,2.34,0,1,0,0-.76H21a5,5,0,0,0-1-2.59l3.61-3.15A3.43,3.43,0,0,0,26,12Z" transform="translate(-1.44)"/><path class="c" d="M12.78,18.32l0.87-1-0.8-.92A0.56,0.56,0,0,1,12.7,16a0.43,0.43,0,0,1,.45-0.45,0.55,0.55,0,0,1,.45.25l0.63,0.84,0.64-.84a0.56,0.56,0,0,1,.42-0.25,0.43,0.43,0,0,1,.45.42,0.51,0.51,0,0,1-.13.33l-0.83,1,0.85,1a0.56,0.56,0,0,1,.16.37,0.43,0.43,0,0,1-.45.45,0.55,0.55,0,0,1-.45-0.25l-0.69-.9-0.69.9a0.56,0.56,0,0,1-.42.25,0.43,0.43,0,0,1-.45-0.42A0.48,0.48,0,0,1,12.78,18.32Z" transform="translate(-1.44)"/><path class="c" d="M18,19.09a1.71,1.71,0,0,1-1.78-1.76h0a1.7,1.7,0,0,1,1.69-1.78,1.61,1.61,0,0,1,1.64,1.64,0.44,0.44,0,0,1-.45.46H17.19a0.79,0.79,0,0,0,.83.67,1.12,1.12,0,0,0,.69-0.23A0.36,0.36,0,0,1,18.94,18a0.37,0.37,0,0,1,.38.38,0.38,0.38,0,0,1-.13.29A1.77,1.77,0,0,1,18,19.09ZM18.63,17a0.73,0.73,0,0,0-.72-0.73,0.76,0.76,0,0,0-.74.73h1.46Z" transform="translate(-1.44)"/></svg>