<svg xmlns="http://www.w3.org/2000/svg" viewBox="0 0 29.11 32"><defs><style>.a,.b{fill:#fff;}.a{opacity:0.65;}</style></defs><title>xenon-logo-white</title><path class="a" d="M16,32A14.56,14.56,0,1,1,30.56,17.44,14.57,14.57,0,0,1,16,32ZM16,5.57A11.87,11.87,0,1,0,27.87,17.44,11.89,11.89,0,0,0,16,5.57Z" transform="translate(-1.44)"/><path class="b" d="M26,12a3.45,3.45,0,1,0-2.83-1.48l-3.61,3.15a5,5,0,0,0-5.73-.9L8.61,5.93A3.46,3.46,0,1,0,8,6.4l5.15,6.81a5,5,0,0,0-2.07,3.67H8.77a2.34,2.34,0,1,0,0,.76h2.29a5,5,0,0,0,1,2.64l-1.42,1.25a1.26,1.26,0,1,0,.46.52l1.42-1.25a5,5,0,0,0,6.63.33l1.64,2.24a3.46,3.46,0,1,0,.61-0.46l-1.69-2.31a5,5,0,0,0,1.28-3h2.22a2.34,2.34,0,1,0,0-.76H21a5,5,0,0,0-1-2.59l3.61-3.15A3.43,3.43,0,0,0,26,12Z" transform="translate(-1.44)"/></svg>